<mxfile host="app.diagrams.net" modified="2024-03-22T03:38:44.479Z" agent="Mozilla/5.0 (Macintosh; Intel Mac OS X 10_15_7) AppleWebKit/537.36 (KHTML, like Gecko) Chrome/122.0.0.0 Safari/537.36" etag="ZCsJthp7_NiNjEkOqHUC" version="24.0.7" type="github">
  <diagram name="第 1 页" id="DNxZg5-Q0C210t_IVQpo">
    <mxGraphModel dx="2227" dy="585" grid="0" gridSize="10" guides="1" tooltips="1" connect="1" arrows="1" fold="1" page="0" pageScale="1" pageWidth="827" pageHeight="1169" math="0" shadow="0">
      <root>
        <mxCell id="0" />
        <mxCell id="1" parent="0" />
        <mxCell id="VVkoufgicKjcMzlBRYbh-6" value="" style="edgeStyle=orthogonalEdgeStyle;rounded=0;sketch=1;hachureGap=4;jiggle=2;curveFitting=1;orthogonalLoop=1;jettySize=auto;html=1;fontFamily=Architects Daughter;fontSource=https%3A%2F%2Ffonts.googleapis.com%2Fcss%3Ffamily%3DArchitects%2BDaughter;" parent="1" source="VVkoufgicKjcMzlBRYbh-1" target="VVkoufgicKjcMzlBRYbh-2" edge="1">
          <mxGeometry relative="1" as="geometry" />
        </mxCell>
        <mxCell id="VVkoufgicKjcMzlBRYbh-1" value="" style="html=1;verticalLabelPosition=bottom;labelBackgroundColor=none;verticalAlign=top;shadow=0;dashed=0;strokeWidth=1;shape=mxgraph.ios7.misc.iphone;strokeColor=#c0c0c0;sketch=1;hachureGap=4;jiggle=2;curveFitting=1;fontFamily=Architects Daughter;fontSource=https%3A%2F%2Ffonts.googleapis.com%2Fcss%3Ffamily%3DArchitects%2BDaughter;" parent="1" vertex="1">
          <mxGeometry x="-922" y="181" width="40" height="60" as="geometry" />
        </mxCell>
        <mxCell id="VVkoufgicKjcMzlBRYbh-7" value="" style="edgeStyle=orthogonalEdgeStyle;rounded=0;sketch=1;hachureGap=4;jiggle=2;curveFitting=1;orthogonalLoop=1;jettySize=auto;html=1;fontFamily=Architects Daughter;fontSource=https%3A%2F%2Ffonts.googleapis.com%2Fcss%3Ffamily%3DArchitects%2BDaughter;" parent="1" source="VVkoufgicKjcMzlBRYbh-2" target="VVkoufgicKjcMzlBRYbh-3" edge="1">
          <mxGeometry relative="1" as="geometry" />
        </mxCell>
        <mxCell id="VVkoufgicKjcMzlBRYbh-2" value="VIP-Server" style="rounded=1;whiteSpace=wrap;html=1;sketch=1;hachureGap=4;jiggle=2;curveFitting=1;fontFamily=Architects Daughter;fontSource=https%3A%2F%2Ffonts.googleapis.com%2Fcss%3Ffamily%3DArchitects%2BDaughter;labelBackgroundColor=none;fillColor=#dae8fc;strokeColor=#6c8ebf;" parent="1" vertex="1">
          <mxGeometry x="-802" y="181" width="120" height="60" as="geometry" />
        </mxCell>
        <mxCell id="VVkoufgicKjcMzlBRYbh-8" value="" style="edgeStyle=orthogonalEdgeStyle;rounded=0;sketch=1;hachureGap=4;jiggle=2;curveFitting=1;orthogonalLoop=1;jettySize=auto;html=1;fontFamily=Architects Daughter;fontSource=https%3A%2F%2Ffonts.googleapis.com%2Fcss%3Ffamily%3DArchitects%2BDaughter;" parent="1" source="VVkoufgicKjcMzlBRYbh-3" target="VVkoufgicKjcMzlBRYbh-4" edge="1">
          <mxGeometry relative="1" as="geometry" />
        </mxCell>
        <mxCell id="VVkoufgicKjcMzlBRYbh-3" value="AServer" style="rounded=1;whiteSpace=wrap;html=1;sketch=1;hachureGap=4;jiggle=2;curveFitting=1;fontFamily=Architects Daughter;fontSource=https%3A%2F%2Ffonts.googleapis.com%2Fcss%3Ffamily%3DArchitects%2BDaughter;labelBackgroundColor=none;fillColor=#dae8fc;strokeColor=#6c8ebf;" parent="1" vertex="1">
          <mxGeometry x="-612" y="181" width="120" height="60" as="geometry" />
        </mxCell>
        <mxCell id="VVkoufgicKjcMzlBRYbh-11" value="" style="edgeStyle=orthogonalEdgeStyle;rounded=0;sketch=1;hachureGap=4;jiggle=2;curveFitting=1;orthogonalLoop=1;jettySize=auto;html=1;fontFamily=Architects Daughter;fontSource=https%3A%2F%2Ffonts.googleapis.com%2Fcss%3Ffamily%3DArchitects%2BDaughter;" parent="1" source="VVkoufgicKjcMzlBRYbh-4" target="VVkoufgicKjcMzlBRYbh-10" edge="1">
          <mxGeometry relative="1" as="geometry" />
        </mxCell>
        <mxCell id="VVkoufgicKjcMzlBRYbh-4" value="ACCS" style="rounded=1;whiteSpace=wrap;html=1;sketch=1;hachureGap=4;jiggle=2;curveFitting=1;fontFamily=Architects Daughter;fontSource=https%3A%2F%2Ffonts.googleapis.com%2Fcss%3Ffamily%3DArchitects%2BDaughter;labelBackgroundColor=none;fillColor=#dae8fc;strokeColor=#6c8ebf;" parent="1" vertex="1">
          <mxGeometry x="-422" y="181" width="120" height="60" as="geometry" />
        </mxCell>
        <mxCell id="VVkoufgicKjcMzlBRYbh-9" value="" style="edgeStyle=orthogonalEdgeStyle;rounded=0;sketch=1;hachureGap=4;jiggle=2;curveFitting=1;orthogonalLoop=1;jettySize=auto;html=1;fontFamily=Architects Daughter;fontSource=https%3A%2F%2Ffonts.googleapis.com%2Fcss%3Ffamily%3DArchitects%2BDaughter;" parent="1" source="VVkoufgicKjcMzlBRYbh-5" edge="1">
          <mxGeometry relative="1" as="geometry">
            <mxPoint x="-302" y="424" as="targetPoint" />
          </mxGeometry>
        </mxCell>
        <mxCell id="VVkoufgicKjcMzlBRYbh-5" value="agoo" style="rounded=1;whiteSpace=wrap;html=1;sketch=1;hachureGap=4;jiggle=2;curveFitting=1;fontFamily=Architects Daughter;fontSource=https%3A%2F%2Ffonts.googleapis.com%2Fcss%3Ffamily%3DArchitects%2BDaughter;labelBackgroundColor=none;fillColor=#dae8fc;strokeColor=#6c8ebf;" parent="1" vertex="1">
          <mxGeometry x="-235" y="394" width="120" height="60" as="geometry" />
        </mxCell>
        <mxCell id="VVkoufgicKjcMzlBRYbh-13" value="" style="edgeStyle=orthogonalEdgeStyle;rounded=0;sketch=1;hachureGap=4;jiggle=2;curveFitting=1;orthogonalLoop=1;jettySize=auto;html=1;fontFamily=Architects Daughter;fontSource=https%3A%2F%2Ffonts.googleapis.com%2Fcss%3Ffamily%3DArchitects%2BDaughter;" parent="1" source="VVkoufgicKjcMzlBRYbh-10" target="VVkoufgicKjcMzlBRYbh-12" edge="1">
          <mxGeometry relative="1" as="geometry" />
        </mxCell>
        <mxCell id="VVkoufgicKjcMzlBRYbh-10" value="MetQ" style="rounded=0;whiteSpace=wrap;html=1;sketch=1;hachureGap=4;jiggle=2;curveFitting=1;fontFamily=Architects Daughter;fontSource=https%3A%2F%2Ffonts.googleapis.com%2Fcss%3Ffamily%3DArchitects%2BDaughter;fillColor=#d5e8d4;strokeColor=#82b366;" parent="1" vertex="1">
          <mxGeometry x="-422" y="283" width="120" height="60" as="geometry" />
        </mxCell>
        <mxCell id="VVkoufgicKjcMzlBRYbh-12" value="Redis" style="rounded=0;whiteSpace=wrap;html=1;sketch=1;hachureGap=4;jiggle=2;curveFitting=1;fontFamily=Architects Daughter;fontSource=https%3A%2F%2Ffonts.googleapis.com%2Fcss%3Ffamily%3DArchitects%2BDaughter;fillColor=#d5e8d4;strokeColor=#82b366;" parent="1" vertex="1">
          <mxGeometry x="-422" y="394" width="120" height="60" as="geometry" />
        </mxCell>
        <mxCell id="VVkoufgicKjcMzlBRYbh-14" value="&lt;font color=&quot;#ff3333&quot; style=&quot;font-size: 24px;&quot;&gt;连接数增加&lt;/font&gt;" style="text;html=1;align=center;verticalAlign=middle;resizable=0;points=[];autosize=1;strokeColor=none;fillColor=none;fontFamily=Architects Daughter;fontSource=https%3A%2F%2Ffonts.googleapis.com%2Fcss%3Ffamily%3DArchitects%2BDaughter;" parent="1" vertex="1">
          <mxGeometry x="-813" y="125" width="138" height="41" as="geometry" />
        </mxCell>
        <mxCell id="VVkoufgicKjcMzlBRYbh-15" value="&lt;font color=&quot;#ff3333&quot;&gt;&lt;span style=&quot;font-size: 24px;&quot;&gt;CPU升高&lt;/span&gt;&lt;/font&gt;&lt;div&gt;&lt;font color=&quot;#ff3333&quot;&gt;&lt;span style=&quot;font-size: 24px;&quot;&gt;连接数增加&lt;/span&gt;&lt;/font&gt;&lt;/div&gt;" style="text;html=1;align=center;verticalAlign=middle;resizable=0;points=[];autosize=1;strokeColor=none;fillColor=none;fontFamily=Architects Daughter;fontSource=https%3A%2F%2Ffonts.googleapis.com%2Fcss%3Ffamily%3DArchitects%2BDaughter;" parent="1" vertex="1">
          <mxGeometry x="-619" y="111" width="138" height="70" as="geometry" />
        </mxCell>
        <mxCell id="VVkoufgicKjcMzlBRYbh-16" value="&lt;font color=&quot;#ff3333&quot;&gt;&lt;span style=&quot;font-size: 24px;&quot;&gt;CPU升高&lt;/span&gt;&lt;/font&gt;" style="text;html=1;align=center;verticalAlign=middle;resizable=0;points=[];autosize=1;strokeColor=none;fillColor=none;fontFamily=Architects Daughter;fontSource=https%3A%2F%2Ffonts.googleapis.com%2Fcss%3Ffamily%3DArchitects%2BDaughter;" parent="1" vertex="1">
          <mxGeometry x="-418" y="123" width="112" height="41" as="geometry" />
        </mxCell>
        <mxCell id="VVkoufgicKjcMzlBRYbh-17" value="&lt;font color=&quot;#ff3333&quot;&gt;&lt;span style=&quot;font-size: 24px;&quot;&gt;消息堆积&lt;/span&gt;&lt;/font&gt;" style="text;html=1;align=center;verticalAlign=middle;resizable=0;points=[];autosize=1;strokeColor=none;fillColor=none;fontFamily=Architects Daughter;fontSource=https%3A%2F%2Ffonts.googleapis.com%2Fcss%3Ffamily%3DArchitects%2BDaughter;" parent="1" vertex="1">
          <mxGeometry x="-536" y="292.5" width="114" height="41" as="geometry" />
        </mxCell>
        <mxCell id="VVkoufgicKjcMzlBRYbh-19" value="&lt;font color=&quot;#ff3333&quot;&gt;&lt;span style=&quot;font-size: 24px;&quot;&gt;更新延迟&lt;/span&gt;&lt;/font&gt;" style="text;html=1;align=center;verticalAlign=middle;resizable=0;points=[];autosize=1;strokeColor=none;fillColor=none;fontFamily=Architects Daughter;fontSource=https%3A%2F%2Ffonts.googleapis.com%2Fcss%3Ffamily%3DArchitects%2BDaughter;" parent="1" vertex="1">
          <mxGeometry x="-548" y="403.5" width="114" height="41" as="geometry" />
        </mxCell>
        <mxCell id="VVkoufgicKjcMzlBRYbh-20" value="&lt;font color=&quot;#ff3333&quot;&gt;&lt;span style=&quot;font-size: 24px;&quot;&gt;失败率升高&lt;/span&gt;&lt;/font&gt;" style="text;html=1;align=center;verticalAlign=middle;resizable=0;points=[];autosize=1;strokeColor=none;fillColor=none;fontFamily=Architects Daughter;fontSource=https%3A%2F%2Ffonts.googleapis.com%2Fcss%3Ffamily%3DArchitects%2BDaughter;" parent="1" vertex="1">
          <mxGeometry x="-244" y="462" width="138" height="41" as="geometry" />
        </mxCell>
        <mxCell id="VVkoufgicKjcMzlBRYbh-22" value="&lt;font color=&quot;#ff3333&quot; style=&quot;font-size: 24px;&quot;&gt;保活&lt;/font&gt;" style="text;html=1;align=center;verticalAlign=middle;resizable=0;points=[];autosize=1;strokeColor=none;fillColor=none;fontFamily=Architects Daughter;fontSource=https%3A%2F%2Ffonts.googleapis.com%2Fcss%3Ffamily%3DArchitects%2BDaughter;" parent="1" vertex="1">
          <mxGeometry x="-939" y="123" width="66" height="41" as="geometry" />
        </mxCell>
      </root>
    </mxGraphModel>
  </diagram>
</mxfile>
